<?xml version="1.0" standalone="no"?>
<!DOCTYPE svg PUBLIC "-//W3C//DTD SVG 20010904//EN"
 "http://www.w3.org/TR/2001/REC-SVG-20010904/DTD/svg10.dtd">
<svg version="1.0" xmlns="http://www.w3.org/2000/svg"
 width="640.000000pt" height="699.000000pt" viewBox="0 0 640.000000 699.000000"
 preserveAspectRatio="xMidYMid meet">

<g transform="translate(0.000000,699.000000) scale(0.100000,-0.100000)"
fill="#000000" stroke="none">
<path d="M5935 6966 c-70 -32 -144 -103 -217 -204 -78 -111 -103 -137 -158
-171 -43 -26 -47 -27 -90 -13 -58 17 -163 10 -250 -18 -44 -14 -111 -24 -205
-29 -77 -5 -148 -12 -158 -16 -10 -4 -38 1 -67 14 -60 26 -122 27 -175 2 -49
-22 -76 -51 -155 -161 -183 -257 -184 -259 -186 -495 -1 -222 -14 -276 -115
-479 -47 -97 -77 -173 -92 -235 l-22 -91 -105 0 c-120 0 -301 -15 -375 -31
-27 -6 -140 -40 -250 -76 -168 -55 -212 -66 -273 -67 l-74 -1 -24 80 c-13 44
-23 83 -24 87 0 4 21 10 46 14 51 7 80 39 71 77 -7 24 -125 118 -224 176 -35
20 -63 39 -63 42 0 3 11 11 25 17 28 13 43 57 28 81 -6 9 -34 30 -64 48 -30
17 -79 54 -109 81 l-55 50 28 22 c30 23 37 69 14 88 -7 7 -96 38 -198 71
l-184 59 -5 39 c-4 34 -10 40 -54 62 -38 17 -73 24 -148 28 -84 5 -98 9 -103
24 -11 34 -40 41 -119 30 -78 -11 -215 -57 -274 -91 l-35 -21 -14 21 c-28 40
-61 26 -168 -71 -294 -268 -267 -246 -307 -241 -34 4 -39 1 -83 -55 -71 -90
-129 -219 -159 -355 -4 -19 -11 -26 -21 -22 -8 4 -26 -1 -40 -10 -32 -21 -33
-71 -6 -177 78 -299 92 -360 98 -425 4 -55 2 -78 -8 -90 -8 -10 -77 -68 -154
-129 -159 -127 -285 -253 -285 -283 0 -12 5 -32 11 -45 10 -21 6 -31 -29 -77
-22 -29 -61 -90 -87 -136 -55 -99 -57 -131 -7 -155 l33 -17 -81 -73 c-44 -41
-83 -83 -86 -95 -8 -29 9 -59 64 -116 l46 -48 -22 -23 c-27 -29 -28 -68 -3
-91 14 -13 18 -26 14 -55 -3 -20 0 -55 6 -76 10 -36 9 -42 -11 -56 -41 -31
-23 -88 84 -267 86 -144 105 -237 77 -387 -15 -80 -35 -117 -116 -211 -83 -96
-111 -157 -124 -272 -19 -177 -30 -243 -59 -354 -51 -202 -63 -283 -57 -398
11 -182 55 -283 142 -321 79 -35 329 -44 384 -14 14 8 42 21 61 30 37 16 70
59 70 92 0 31 -37 169 -54 202 -17 32 -56 67 -87 76 -18 6 -19 17 -19 173 0
233 19 315 92 398 l32 36 24 -79 c19 -61 26 -113 32 -238 9 -182 28 -249 82
-303 46 -44 94 -61 192 -68 63 -5 96 -3 133 9 26 8 62 18 79 21 16 4 58 29 91
56 67 54 82 86 63 136 -22 57 -156 174 -201 174 -20 0 -27 34 -35 170 -10 157
23 271 96 332 19 16 91 57 160 90 290 142 384 233 591 578 51 85 94 157 96
159 1 2 29 -8 60 -22 196 -86 346 -76 413 30 l28 44 49 -56 c82 -96 230 -198
549 -378 275 -156 410 -213 555 -237 41 -6 84 -14 96 -16 37 -7 45 -60 53
-349 6 -216 12 -293 30 -385 19 -96 24 -167 30 -420 7 -285 9 -311 34 -400 14
-52 32 -156 40 -231 17 -158 30 -217 62 -279 40 -81 112 -130 192 -130 22 0
61 -9 87 -21 33 -15 60 -20 94 -16 25 2 82 -1 127 -6 81 -10 81 -10 136 21 31
18 60 44 68 59 22 47 25 193 5 254 -26 77 -102 151 -181 175 -32 10 -62 20
-66 24 -4 3 -17 82 -29 175 -18 147 -19 181 -9 255 14 101 29 137 30 69 0 -47
40 -241 60 -294 15 -40 56 -82 105 -107 29 -15 70 -23 150 -29 61 -4 137 -13
170 -19 69 -14 128 -2 145 30 5 10 18 21 28 24 10 3 25 19 35 35 49 82 -13
219 -129 287 -48 28 -53 39 -80 181 -29 152 -19 263 55 610 36 172 67 263 165
500 62 149 80 203 95 294 11 61 21 111 23 113 41 26 193 165 233 213 99 120
133 203 170 417 19 105 33 156 55 198 37 69 54 115 86 238 16 61 46 133 82
200 120 225 134 263 151 434 6 58 16 105 24 115 8 9 22 31 32 50 10 19 39 55
65 81 63 61 90 133 90 238 0 64 -5 88 -26 131 -26 52 -26 52 -10 110 9 31 27
133 41 225 16 113 36 203 61 279 32 96 38 125 38 207 1 118 -13 152 -112 268
l-70 84 13 39 c39 109 43 318 10 511 -27 155 -66 233 -135 268 -52 26 -103 25
-165 -4z m140 -100 c63 -63 111 -406 82 -585 -9 -51 -18 -95 -21 -98 -3 -3
-17 4 -33 15 -41 29 -98 51 -151 58 l-47 6 -24 85 c-20 74 -22 89 -11 127 20
74 7 89 -23 26 -32 -66 -32 -77 -7 -159 11 -35 19 -66 17 -68 -2 -2 -21 0 -43
5 -46 9 -84 57 -84 105 l0 31 -33 -32 c-25 -25 -36 -29 -45 -20 -25 25 -22 -1
4 -31 39 -47 105 -76 227 -99 135 -27 186 -49 223 -97 16 -21 57 -72 92 -114
91 -111 106 -146 100 -245 -4 -52 -16 -113 -36 -172 -19 -58 -36 -139 -47
-225 -31 -256 -48 -345 -64 -335 -5 3 -28 48 -51 101 -24 52 -45 93 -48 91
-11 -11 54 -172 95 -237 38 -59 48 -83 51 -128 4 -60 -9 -125 -32 -156 -14
-19 -15 -19 -35 -1 -20 18 -20 18 0 54 42 80 11 188 -64 223 -86 38 -179 15
-261 -65 -32 -30 -55 -63 -59 -81 -9 -48 20 -95 76 -123 26 -12 47 -27 47 -33
0 -21 -30 -65 -70 -104 -40 -39 -42 -40 -113 -39 -80 1 -104 10 -202 79 -71
50 -137 85 -162 85 -9 0 8 -15 38 -33 30 -18 87 -58 128 -89 98 -75 128 -82
298 -73 137 7 234 25 262 48 31 26 -8 -30 -43 -61 -47 -41 -126 -66 -190 -59
-74 7 -404 104 -453 133 -22 13 -72 52 -110 87 -70 64 -121 100 -160 112 -34
10 -28 -8 8 -24 17 -7 72 -53 122 -100 51 -48 103 -95 117 -104 24 -17 23 -17
-54 -17 -111 0 -185 22 -311 94 -124 71 -137 76 -255 107 -47 12 -101 30 -120
40 -82 41 -137 137 -164 287 l-14 77 -1 -65 c-2 -115 39 -232 102 -290 85 -80
143 -122 224 -165 135 -73 180 -104 288 -205 132 -122 236 -205 296 -235 48
-25 48 -25 59 -5 15 28 -2 79 -38 112 -15 14 -55 44 -88 67 -34 23 -82 68
-106 99 l-44 57 160 -2 c159 -2 163 -2 321 -49 200 -58 281 -63 362 -22 l51
26 -5 -36 c-24 -175 -48 -250 -128 -388 -74 -128 -90 -166 -125 -302 -44 -171
-92 -263 -185 -350 -41 -40 -71 -72 -66 -72 5 0 36 20 70 45 34 25 61 41 61
35 0 -5 -12 -65 -26 -132 -45 -214 -98 -298 -307 -487 -185 -167 -260 -250
-124 -138 44 36 48 38 43 16 -4 -13 -13 -56 -21 -95 -16 -81 -28 -112 -114
-309 -89 -202 -124 -313 -171 -550 -65 -324 -65 -437 3 -672 25 -88 36 -113
52 -117 71 -18 167 -165 125 -191 -6 -3 -10 4 -10 17 0 49 -51 106 -110 123
-21 6 -17 -1 23 -39 42 -41 47 -50 47 -91 0 -42 -2 -45 -27 -45 -16 0 -45 3
-65 6 -32 6 -38 11 -38 31 0 27 -24 69 -46 77 -9 4 -7 -4 7 -23 11 -16 19 -39
17 -52 -3 -23 -6 -24 -79 -23 -86 1 -140 22 -171 64 -25 35 -57 201 -68 346
-5 67 -16 153 -25 190 -9 38 -21 130 -25 204 -5 74 -16 168 -24 208 -14 66
-14 87 -1 220 27 254 53 322 164 421 40 35 90 90 113 123 54 81 101 126 195
188 231 155 281 202 357 341 54 98 44 94 -25 -9 -74 -111 -137 -170 -266 -250
-158 -97 -213 -143 -281 -235 -34 -47 -88 -106 -120 -132 -117 -96 -153 -192
-183 -480 -33 -323 -38 -386 -39 -505 0 -70 -8 -160 -21 -230 -33 -188 -40
-252 -34 -310 8 -70 62 -367 69 -379 3 -4 26 -14 51 -21 70 -20 131 -63 156
-112 26 -50 38 -174 21 -204 -10 -16 -11 -11 -12 26 -1 78 -51 164 -113 197
-42 21 -42 11 -2 -25 49 -45 67 -87 73 -164 l5 -68 -44 0 c-24 0 -61 3 -81 6
-35 6 -38 9 -43 48 -8 54 -53 135 -85 155 l-25 15 27 -30 c37 -40 58 -94 58
-149 0 -56 -16 -65 -68 -40 -21 9 -66 21 -102 26 -77 11 -107 30 -136 90 -26
51 -40 121 -53 274 -6 61 -23 165 -40 232 -29 120 -30 127 -29 380 0 239 -2
269 -27 408 -23 125 -29 193 -35 410 -7 237 -10 268 -34 350 -31 107 -33 201
-10 385 21 172 6 370 -38 488 -20 54 -71 122 -91 122 -6 0 -1 -10 11 -23 82
-87 119 -332 88 -577 -9 -68 -16 -176 -16 -238 l0 -114 -27 6 c-16 3 -48 8
-73 12 -138 20 -299 93 -610 273 -346 202 -374 224 -566 436 -80 89 -144 133
-217 149 -23 5 -30 3 -34 -12 -4 -18 -11 -16 -82 20 -90 47 -147 54 -168 21
-12 -18 -18 -19 -43 -10 -21 8 -39 7 -69 -2 -37 -11 -53 -27 -143 -149 -71
-95 -155 -190 -275 -309 -146 -147 -185 -193 -259 -305 -144 -219 -182 -251
-462 -392 -356 -180 -400 -269 -375 -758 l6 -127 34 -12 c38 -12 73 -59 73
-97 0 -12 7 -38 15 -58 16 -39 12 -60 -15 -67 -15 -4 -20 2 -25 27 -19 99 -29
129 -55 156 -17 18 -38 30 -54 30 -33 0 -33 -8 -1 -20 13 -5 31 -22 39 -38 19
-36 40 -162 29 -173 -4 -4 -39 -9 -78 -11 l-70 -3 3 27 c3 25 -30 118 -42 118
-3 0 2 -20 10 -44 9 -25 14 -55 12 -68 -3 -21 -8 -23 -65 -23 -51 0 -66 4 -88
25 -42 39 -59 117 -58 260 1 114 5 141 46 300 45 175 60 260 72 400 8 97 36
158 114 245 105 118 138 222 129 404 -6 115 -23 158 -127 320 -39 60 -71 114
-71 119 0 6 16 13 35 16 19 4 36 10 39 15 3 4 -6 29 -19 56 -32 63 -31 82 5
103 16 9 30 20 30 24 0 5 -16 25 -35 47 -19 21 -35 42 -35 47 0 4 16 25 36 45
l36 37 -71 56 c-39 31 -71 60 -71 63 0 4 33 39 74 79 61 59 136 160 136 185 0
4 -23 9 -50 13 -33 4 -50 11 -50 21 0 26 124 199 192 269 37 38 68 70 68 72 0
2 -12 4 -27 5 -68 1 -68 11 -1 75 35 33 108 96 163 140 158 128 244 228 290
337 22 52 5 46 -25 -9 -13 -26 -40 -67 -59 -93 l-36 -46 -11 105 c-10 84 -67
348 -101 464 -4 15 -2 18 13 11 50 -20 49 -20 62 70 14 98 50 203 94 278 17
29 32 54 33 55 2 2 12 -13 23 -34 l19 -37 33 49 c59 87 125 154 284 287 l49
42 -6 -33 c-5 -25 -4 -31 6 -25 196 123 305 176 386 189 l42 7 -22 -38 -23
-38 30 7 c16 4 89 10 162 13 148 6 171 0 135 -39 -37 -42 -36 -45 35 -62 37
-9 133 -38 214 -63 l147 -47 -36 -24 -36 -24 34 -27 c19 -14 59 -49 89 -76 30
-28 72 -63 92 -79 l38 -28 -40 -39 c-22 -22 -40 -42 -40 -46 0 -5 43 -32 96
-61 53 -30 125 -74 161 -99 l64 -46 -50 -17 c-28 -9 -54 -19 -56 -22 -3 -3 8
-34 24 -69 17 -35 41 -98 54 -140 l24 -76 -110 -6 c-128 -7 -166 4 -269 73
-82 56 -198 158 -198 175 0 8 10 21 22 29 12 9 20 17 17 20 -18 17 -188 58
-264 62 -122 8 -118 5 -95 60 l20 47 -142 -5 c-102 -4 -167 -11 -226 -27 -86
-22 -105 -21 -95 5 5 13 1 15 -18 9 -81 -24 -190 -126 -254 -237 -24 -42 -46
-68 -56 -68 -10 0 -22 -13 -28 -31 -55 -157 106 -275 383 -283 85 -2 91 -3 94
-24 3 -18 8 -21 30 -16 50 11 129 51 218 110 l89 59 170 -6 c214 -7 809 7 895
21 74 13 143 33 285 84 136 50 231 73 360 87 117 12 349 18 359 8 3 -3 -4 -53
-16 -111 l-22 -105 21 -59 c12 -32 31 -84 42 -114 11 -30 25 -74 31 -97 15
-60 48 -94 179 -186 64 -45 142 -106 174 -136 31 -30 57 -49 57 -44 0 23 -97
116 -209 202 -66 50 -129 102 -140 117 -11 14 -25 51 -32 82 -7 31 -25 86 -40
122 -39 94 -42 118 -24 201 9 41 21 115 26 164 14 136 26 179 90 315 73 157
97 222 105 283 4 26 10 49 14 52 7 4 46 -147 54 -210 2 -16 3 7 3 52 0 46 -6
105 -13 133 -7 27 -18 95 -24 150 -21 179 9 305 103 428 24 31 63 86 86 122
59 90 85 110 141 110 52 0 74 -12 145 -81 54 -52 153 -102 225 -114 54 -8 45
6 -15 25 -65 21 -130 57 -171 95 -36 35 -37 37 -19 48 11 6 87 14 170 18 119
5 168 12 235 33 106 32 135 32 235 1 90 -28 95 -29 95 -16 0 5 -12 13 -27 18
-26 9 -26 9 28 40 69 39 100 69 176 168 139 182 237 242 298 181z m-4307
-1851 c67 -31 178 -108 163 -113 -28 -9 -187 59 -228 98 -49 45 -16 53 65 15z
m4311 -74 c8 -5 11 -16 8 -25 -12 -30 -117 -13 -117 19 0 11 12 15 48 15 26 0
53 -4 61 -9z m-3893 -1755 c28 -13 66 -37 86 -55 41 -36 48 -38 48 -13 0 9 4
23 9 30 12 20 69 -7 125 -58 l46 -42 -21 -27 c-11 -14 -34 -45 -50 -69 -60
-86 -130 -82 -379 25 -73 31 -124 47 -167 51 -35 2 -63 7 -63 10 0 14 85 134
101 142 29 16 80 11 115 -11 l34 -21 0 25 c0 13 3 27 7 30 13 14 59 6 109 -17z
m-244 -203 c21 -8 38 -17 38 -19 0 -8 -218 -346 -262 -406 -27 -37 -87 -102
-133 -146 -73 -69 -105 -90 -242 -161 -204 -104 -261 -149 -305 -238 -33 -67
-33 -68 -33 -218 0 -111 5 -171 19 -231 l18 -80 48 -17 c43 -15 141 -102 139
-124 0 -12 -79 -73 -94 -73 -7 0 -16 11 -19 24 -8 32 -52 83 -87 101 -44 23
-56 18 -18 -8 39 -26 79 -81 79 -109 0 -29 -45 -41 -126 -33 -152 14 -174 47
-185 279 -7 132 -13 174 -34 235 -31 92 -31 122 -1 186 22 49 26 52 157 117
207 103 272 164 400 371 47 77 100 139 233 277 94 97 191 205 216 239 l45 61
55 -6 c30 -3 72 -13 92 -21z"/>
<path d="M4958 6132 c-26 -55 -72 -107 -146 -162 l-65 -50 -32 28 c-19 15 -45
35 -59 45 -27 19 -33 47 -17 89 32 87 16 105 -23 26 -42 -84 -30 -135 38 -170
23 -11 44 -25 48 -31 4 -6 -18 -37 -48 -70 -54 -58 -119 -168 -112 -189 2 -6
25 18 51 55 49 69 119 135 252 240 64 50 86 75 112 125 31 61 42 102 26 102
-5 0 -16 -17 -25 -38z"/>
<path d="M5781 5887 c-37 -19 -63 -60 -59 -93 l3 -29 22 38 c32 53 63 63 138
44 33 -8 69 -19 80 -23 l20 -7 -20 23 c-43 50 -134 73 -184 47z"/>
<path d="M5240 5764 c-43 -19 -159 -96 -160 -107 0 -13 53 5 129 45 41 22 83
38 95 36 11 -2 31 -18 43 -37 17 -25 24 -30 29 -18 7 20 -21 73 -45 87 -26 14
-49 12 -91 -6z"/>
<path d="M5892 5672 c-32 -32 -44 -91 -31 -151 11 -52 29 -78 29 -42 0 17 6
21 30 21 65 0 110 46 110 114 0 41 -26 63 -83 73 -27 4 -39 1 -55 -15z m88
-62 c0 -5 -7 -10 -15 -10 -8 0 -15 5 -15 10 0 6 7 10 15 10 8 0 15 -4 15 -10z"/>
<path d="M5155 5506 c-16 -7 -40 -25 -53 -38 l-23 -25 27 -32 c14 -17 39 -38
55 -46 37 -20 99 -19 128 1 23 16 25 16 42 -7 17 -22 19 -23 19 -4 0 11 -11
44 -25 72 -37 82 -99 110 -170 79z m95 -56 c0 -5 -4 -10 -10 -10 -5 0 -10 5
-10 10 0 6 5 10 10 10 6 0 10 -4 10 -10z"/>
<path d="M3890 4644 c0 -8 -19 -70 -42 -137 -38 -107 -43 -133 -43 -207 0
-105 10 -126 114 -235 100 -104 128 -147 205 -307 63 -132 90 -177 99 -168 5
5 -17 61 -100 259 -36 86 -81 151 -169 242 -83 86 -113 142 -114 209 0 25 16
104 35 175 36 133 43 185 25 185 -5 0 -10 -7 -10 -16z"/>
</g>
</svg>
